{"glyphs":{"A":{"ha":1479,"x_min":0,"x_max":1479,"o":"m 739 0 l 369 1013 l 0 1013 l 554 0 l 739 0 m 925 0 l 1479 1013 l 1110 1013 l 739 0 l 925 0 m 369 369 l 1110 369 l 1110 553 l 369 553 l 369 369 "},"B":{"ha":1479,"x_min":0,"x_max":1479,"o":"m 0 0 l 0 1013 l 739 1013 q 1110 1013 1294 829 q 1479 645 1479 461 q 1479 277 1294 138 q 1110 0 739 0 l 0 0 m 184 184 l 739 184 q 925 184 1017 276 q 1110 369 1110 461 q 1110 553 1017 645 q 925 738 739 738 l 184 738 l 184 184 "},"C":{"ha":1479,"x_min":92,"x_max":1387,"o":"m 739 -20 q 369 -20 230 159 q 92 338 92 507 q 92 676 230 855 q 369 1033 507 1033 q 645 1033 784 916 q 923 799 923 645 l 923 553 q 923 645 861 707 q 799 769 739 769 q 645 769 583 707 q 522 645 522 507 q 522 369 583 307 q 645 245 739 245 q 799 245 861 307 q 923 369 923 461 l 923 215 q 923 61 784 -56 q 645 -20 507 -20 l 739 -20 "},"D":{"ha":1479,"x_min":0,"x_max":1479,"o":"m 0 0 l 0 1013 l 739 1013 q 1110 1013 1294 829 q 1479 645 1479 507 q 1479 369 1294 184 q 1110 0 739 0 l 0 0 m 184 184 l 739 184 q 925 184 1017 276 q 1110 369 1110 507 q 1110 645 1017 737 q 925 829 739 829 l 184 829 l 184 184 "},"E":{"ha":1295,"x_min":0,"x_max":1295,"o":"m 0 0 l 0 1013 l 1295 1013 l 1295 829 l 184 829 l 184 645 l 1110 645 l 1110 461 l 184 461 l 184 184 l 1295 184 l 1295 0 l 0 0 "},"F":{"ha":1295,"x_min":0,"x_max":1295,"o":"m 0 0 l 0 1013 l 1295 1013 l 1295 829 l 184 829 l 184 645 l 1110 645 l 1110 461 l 184 461 l 184 0 l 0 0 "},"G":{"ha":1479,"x_min":92,"x_max":1387,"o":"m 739 -20 q 369 -20 230 159 q 92 338 92 507 q 92 676 230 855 q 369 1033 507 1033 q 645 1033 784 916 q 923 799 923 645 l 923 553 l 739 553 l 739 369 l 1387 369 l 1387 645 q 1387 799 1248 916 q 1110 1033 923 1033 q 645 1033 507 855 q 369 676 369 507 q 369 338 507 159 q 645 -20 739 -20 l 739 -20 "},"H":{"ha":1479,"x_min":0,"x_max":1479,"o":"m 0 0 l 0 1013 l 184 1013 l 184 645 l 1295 645 l 1295 1013 l 1479 1013 l 1479 0 l 1295 0 l 1295 461 l 184 461 l 184 0 l 0 0 "},"I":{"ha":554,"x_min":92,"x_max":461,"o":"m 92 0 l 92 184 l 184 184 l 184 829 l 92 829 l 92 1013 l 461 1013 l 461 829 l 369 829 l 369 184 l 461 184 l 461 0 l 92 0 "},"J":{"ha":1110,"x_min":92,"x_max":1110,"o":"m 554 -20 q 369 -20 230 119 q 92 258 92 369 l 92 461 l 276 461 l 276 369 q 276 307 307 276 q 338 245 369 245 q 399 245 430 276 q 461 307 461 369 l 461 1013 l 645 1013 l 645 369 q 645 184 568 82 q 492 -20 369 -20 l 554 -20 "},"K":{"ha":1479,"x_min":0,"x_max":1479,"o":"m 0 0 l 0 1013 l 184 1013 l 184 645 l 1110 1013 l 1387 1013 l 645 738 l 1479 0 l 1202 0 l 554 553 l 184 369 l 184 0 l 0 0 "},"L":{"ha":1295,"x_min":0,"x_max":1295,"o":"m 0 0 l 0 1013 l 184 1013 l 184 184 l 1295 184 l 1295 0 l 0 0 "},"M":{"ha":1848,"x_min":0,"x_max":1848,"o":"m 0 0 l 0 1013 l 369 1013 l 924 369 l 1479 1013 l 1848 1013 l 1848 0 l 1664 0 l 1664 738 l 1202 184 l 1110 184 l 645 738 l 184 0 l 0 0 "},"N":{"ha":1479,"x_min":0,"x_max":1479,"o":"m 0 0 l 0 1013 l 369 1013 l 1110 369 l 1110 1013 l 1295 1013 l 1295 0 l 925 0 l 184 645 l 184 0 l 0 0 "},"O":{"ha":1479,"x_min":92,"x_max":1387,"o":"m 739 -20 q 369 -20 230 159 q 92 338 92 507 q 92 676 230 855 q 369 1033 507 1033 q 645 1033 784 855 q 923 676 923 507 q 923 338 784 159 q 645 -20 507 -20 l 739 -20 m 739 245 q 861 245 923 307 q 984 369 984 507 q 984 645 923 707 q 861 769 739 769 q 615 769 553 707 q 492 645 492 507 q 492 369 553 307 q 615 245 739 245 "},"P":{"ha":1295,"x_min":0,"x_max":1295,"o":"m 0 0 l 0 1013 l 739 1013 q 1110 1013 1202 921 q 1295 829 1295 645 q 1295 461 1202 369 q 1110 277 739 277 l 184 277 l 184 0 l 0 0 m 184 461 l 739 461 q 861 461 923 523 q 984 584 984 645 q 984 707 923 769 q 861 829 739 829 l 184 829 l 184 461 "},"Q":{"ha":1479,"x_min":92,"x_max":1387,"o":"m 739 -20 q 369 -20 230 159 q 92 338 92 507 q 92 676 230 855 q 369 1033 507 1033 q 645 1033 784 855 q 923 676 923 507 q 923 338 784 159 q 645 -20 507 -20 l 739 -20 m 739 245 q 861 245 923 307 q 984 369 984 507 q 984 645 923 707 q 861 769 739 769 q 615 769 553 707 q 492 645 492 507 q 492 369 553 307 q 615 245 739 245 m 1110 0 l 1387 0 l 1202 184 l 1110 92 l 1110 0 "},"R":{"ha":1479,"x_min":0,"x_max":1479,"o":"m 0 0 l 0 1013 l 739 1013 q 1110 1013 1202 921 q 1295 829 1295 645 q 1295 553 1248 492 q 1202 430 1110 430 l 1479 0 l 1295 0 l 1110 369 l 184 369 l 184 0 l 0 0 m 184 553 l 739 553 q 861 553 923 615 q 984 676 984 645 q 984 707 923 769 q 861 829 739 829 l 184 829 l 184 553 "},"S":{"ha":1295,"x_min":92,"x_max":1202,"o":"m 645 -20 q 369 -20 230 119 q 92 258 92 369 l 92 461 l 276 461 l 276 369 q 276 307 307 276 q 338 245 369 245 q 553 245 615 307 q 676 369 676 461 q 676 553 615 615 q 553 676 461 676 l 369 676 q 184 676 138 722 q 92 768 92 829 q 92 922 138 977 q 184 1033 230 1033 l 645 1033 q 922 1033 1062 894 q 1202 755 1202 645 l 1202 553 l 1018 553 l 1018 645 q 1018 707 987 738 q 956 769 925 769 q 799 769 737 707 q 676 645 676 553 q 676 461 737 399 q 799 338 829 338 l 925 338 q 1110 338 1156 292 q 1202 246 1202 184 q 1202 92 1156 36 q 1110 -20 1064 -20 l 645 -20 "},"T":{"ha":1295,"x_min":0,"x_max":1295,"o":"m 0 829 l 0 1013 l 1295 1013 l 1295 829 l 739 829 l 739 0 l 554 0 l 554 829 l 0 829 "},"U":{"ha":1479,"x_min":92,"x_max":1387,"o":"m 739 -20 q 369 -20 230 119 q 92 258 92 369 l 92 1013 l 276 1013 l 276 369 q 276 307 307 276 q 338 245 369 245 q 1110 245 1141 276 q 1202 307 1202 369 l 1202 1013 l 1387 1013 l 1387 369 q 1387 258 1248 119 q 1110 -20 739 -20 l 739 -20 "},"V":{"ha":1479,"x_min":0,"x_max":1479,"o":"m 0 1013 l 369 1013 l 739 369 l 1110 1013 l 1479 1013 l 925 0 l 554 0 l 0 1013 "},"W":{"ha":2217,"x_min":0,"x_max":2217,"o":"m 0 1013 l 369 1013 l 554 369 l 739 1013 l 1110 1013 l 1295 369 l 1479 1013 l 1848 1013 l 1664 0 l 1295 0 l 1110 645 l 925 0 l 554 0 l 369 645 l 184 0 l 0 1013 "},"X":{"ha":1479,"x_min":0,"x_max":1479,"o":"m 0 0 l 369 553 l 0 1013 l 369 1013 l 739 645 l 1110 1013 l 1479 1013 l 1110 553 l 1479 0 l 1110 0 l 739 369 l 369 0 l 0 0 "},"Y":{"ha":1479,"x_min":0,"x_max":1479,"o":"m 0 1013 l 369 1013 l 739 645 l 1110 1013 l 1479 1013 l 925 553 l 925 0 l 554 0 l 554 553 l 0 1013 "},"Z":{"ha":1295,"x_min":0,"x_max":1295,"o":"m 0 0 l 0 184 l 922 829 l 0 829 l 0 1013 l 1295 1013 l 1295 829 l 369 184 l 1295 184 l 1295 0 l 0 0 "}," ":{"ha":554,"x_min":0,"x_max":0,"o":""},"0":{"ha":1110,"x_min":92,"x_max":1018,"o":"m 554 -20 q 276 -20 184 159 q 92 338 92 507 q 92 676 184 855 q 276 1033 554 1033 q 830 1033 924 855 q 1018 676 1018 507 q 1018 338 924 159 q 830 -20 554 -20 m 554 245 q 676 245 738 307 q 799 369 799 507 q 799 645 738 707 q 676 769 554 769 q 430 769 369 707 q 307 645 307 507 q 307 369 369 307 q 430 245 554 245 "},"1":{"ha":1110,"x_min":184,"x_max":925,"o":"m 184 0 l 184 184 l 369 184 l 369 829 l 184 829 l 184 1013 l 554 1013 l 554 184 l 739 184 l 739 0 l 184 0 "},"2":{"ha":1110,"x_min":92,"x_max":1018,"o":"m 92 0 l 92 184 l 645 738 q 738 829 799 891 q 830 952 830 1013 q 830 1110 768 1141 q 707 1202 645 1202 q 522 1202 461 1141 q 399 1079 399 1013 l 399 922 l 215 922 l 215 1013 q 215 1202 307 1294 q 399 1387 492 1387 l 645 1387 q 830 1387 924 1294 q 1018 1202 1018 1013 q 1018 922 956 830 q 894 738 830 738 l 369 184 l 1018 184 l 1018 0 l 92 0 "},"3":{"ha":1110,"x_min":92,"x_max":1018,"o":"m 554 -20 q 276 -20 184 68 q 92 156 92 276 l 92 369 l 276 369 l 276 276 q 276 215 307 184 q 338 153 369 153 q 461 153 522 215 q 584 276 584 369 q 584 461 522 523 q 461 584 369 584 l 276 584 l 276 738 l 369 738 q 461 738 522 799 q 584 861 584 922 q 584 1013 522 1079 q 461 1141 369 1141 q 338 1141 307 1079 q 276 1018 276 922 l 276 830 l 92 830 l 92 922 q 92 1110 184 1202 q 276 1294 369 1294 l 554 1294 q 738 1294 830 1202 q 922 1110 922 922 q 922 799 861 738 q 799 676 738 676 q 861 676 922 615 q 984 553 984 461 q 984 276 892 128 q 799 -20 645 -20 l 554 -20 "},"4":{"ha":1110,"x_min":92,"x_max":1018,"o":"m 92 369 l 92 553 l 645 1013 l 830 1013 l 830 553 l 1018 553 l 1018 369 l 830 369 l 830 0 l 645 0 l 645 369 l 92 369 m 276 553 l 645 553 l 645 799 l 276 553 "},"5":{"ha":1110,"x_min":92,"x_max":1018,"o":"m 92 0 l 92 184 l 369 184 q 461 184 522 245 q 584 307 584 369 q 584 461 522 523 q 461 584 369 584 q 338 584 307 523 q 276 461 276 369 l 276 276 l 92 276 l 92 1013 l 1018 1013 l 1018 829 l 276 829 l 276 738 q 338 799 399 830 q 461 861 522 861 l 554 861 q 738 861 830 769 q 922 676 922 553 q 922 369 830 174 q 738 -20 645 -20 l 369 -20 q 184 -20 138 36 q 92 92 92 184 "},"6":{"ha":1110,"x_min":92,"x_max":1018,"o":"m 554 -20 q 276 -20 184 159 q 92 338 92 507 q 92 676 184 855 q 276 1033 554 1033 q 738 1033 830 922 q 922 830 922 738 l 922 645 l 738 645 l 738 738 q 738 799 707 830 q 676 861 645 861 q 553 861 492 799 q 430 738 430 645 q 430 553 492 492 q 553 430 645 430 q 738 430 830 338 q 922 245 922 153 q 922 61 830 20 q 738 -20 645 -20 l 554 -20 m 554 245 q 676 245 738 307 q 799 369 799 461 q 799 553 738 615 q 676 676 554 676 q 430 676 369 615 q 307 553 307 461 q 307 369 369 307 q 430 245 554 245 "},"7":{"ha":1110,"x_min":92,"x_max":1018,"o":"m 92 829 l 92 1013 l 1018 1013 l 1018 829 l 645 0 l 461 0 l 830 829 l 92 829 "},"8":{"ha":1110,"x_min":92,"x_max":1018,"o":"m 554 -20 q 276 -20 184 68 q 92 156 92 276 q 92 369 153 430 q 215 492 276 492 q 153 492 92 553 q 30 615 30 738 q 30 922 122 1110 q 215 1294 307 1294 l 554 1294 q 738 1294 830 1110 q 922 922 922 738 q 922 615 861 553 q 799 492 738 492 q 861 492 922 430 q 984 369 984 276 q 984 156 892 68 q 799 -20 645 -20 l 554 -20 m 554 245 q 676 245 738 307 q 799 369 799 461 q 799 553 738 615 q 676 676 554 676 q 430 676 369 615 q 307 553 307 461 q 307 369 369 307 q 430 245 554 245 m 554 861 q 645 861 692 922 q 738 984 738 1079 q 738 1202 692 1264 q 645 1325 554 1325 q 461 1325 415 1264 q 369 1202 369 1079 q 369 984 415 922 q 461 861 554 861 "},"9":{"ha":1110,"x_min":92,"x_max":1018,"o":"m 554 -20 q 369 -20 276 92 q 184 184 184 276 l 184 369 l 369 369 l 369 276 q 369 215 399 184 q 430 153 461 153 q 553 153 615 215 q 676 276 676 369 q 676 553 615 615 q 553 676 461 676 q 369 676 276 584 q 184 492 184 369 q 184 184 276 82 q 369 -20 461 -20 l 554 -20 m 554 861 q 369 861 307 799 q 245 738 245 645 q 245 553 307 492 q 369 430 461 430 q 615 430 676 492 q 799 553 799 645 q 799 738 676 799 q 615 861 554 861 m 554 1033 q 830 1033 922 855 q 1014 676 1014 507 q 1014 338 922 159 q 830 -20 554 -20 q 276 -20 184 159 q 92 338 92 507 q 92 676 184 855 q 276 1033 554 1033 "}}}
